<svg width="32" height="32" viewBox="0 0 32 32" fill="none" xmlns="http://www.w3.org/2000/svg">
  <circle cx="16" cy="16" r="16" fill="#F7931A"/>
  <path d="M20.5 12.5C20.5 10.5 19 9 17 9H13V7H11V9H9V11H11V13H9V15H11V17H9V19H11V21H9V23H11V25H13V23H15V21H17C19 21 20.5 19.5 20.5 17.5C20.5 16.5 20 15.5 19.5 15C20 14.5 20.5 13.5 20.5 12.5ZM17 19H15V17H17C17.5 17 18 16.5 18 16C18 15.5 17.5 15 17 15H15V13H17C17.5 13 18 12.5 18 12C18 11.5 17.5 11 17 11H15V9H17C18.5 9 19.5 10 19.5 11.5C19.5 12 19.5 12.5 19 13C19.5 13.5 19.5 14 19.5 14.5C19.5 16 18.5 17 17 17H15V19H17Z" fill="white"/>
</svg>


